<svg xmlns="http://www.w3.org/2000/svg" xmlns:xlink="http://www.w3.org/1999/xlink" width="500" zoomAndPan="magnify" viewBox="0 0 375 374.999991" height="500" preserveAspectRatio="xMidYMid meet" version="1.2"><g id="ce2b36657c"><rect x="0" width="375" y="0" height="374.999991" style="fill:#ffffff;fill-opacity:1;stroke:none;"/><rect x="0" width="375" y="0" height="374.999991" style="fill:#ffffff;fill-opacity:1;stroke:none;"/><path style=" stroke:none;fill-rule:evenodd;fill:#cc0000;fill-opacity:1;" d="M 183.515625 24.453125 C 173.226562 26.097656 162.984375 28.011719 152.796875 30.199219 C 146.054688 31.621094 139.324219 32.949219 132.667969 34.613281 C 126.527344 36.15625 120.230469 37.527344 114.214844 39.425781 C 108.40625 41.210938 102.660156 43.175781 96.972656 45.3125 C 85.777344 49.617188 75.550781 55.582031 66.296875 63.210938 C 60.71875 67.867188 55.511719 72.925781 51.140625 78.757812 C 48.125 82.921875 45.410156 87.273438 43.003906 91.8125 C 40.675781 96.148438 39.078125 101.285156 39.027344 106.253906 C 38.949219 120.871094 48.289062 133.117188 59.042969 142.203125 C 62.574219 145.167969 66.332031 147.90625 70.144531 150.515625 C 81.457031 158.277344 93.769531 165.097656 106.277344 171.035156 C 119.183594 177.140625 132.179688 183 145.332031 188.582031 C 157.769531 193.839844 170.476562 198.289062 183.304688 202.535156 C 186.996094 203.738281 190.726562 204.941406 194.417969 206.152344 C 206.042969 209.992188 217.921875 213.539062 229.460938 217.699219 C 236.644531 220.28125 244.304688 222.699219 251.480469 225.925781 C 258.9375 229.273438 266.683594 232.613281 273.257812 237.425781 C 277.730469 240.59375 281.40625 244.511719 284.28125 249.175781 C 287.046875 253.726562 288.773438 258.941406 288.894531 264.261719 C 288.960938 266.816406 288.640625 269.320312 287.941406 271.777344 C 287.242188 274.234375 286.195312 276.53125 284.796875 278.667969 C 277.585938 289.875 265.035156 297.515625 252.929688 302.609375 C 234.808594 310.199219 216.320312 316.75 197.460938 322.253906 C 186.714844 325.386719 175.96875 328.492188 165.148438 331.289062 C 154.28125 334.097656 143.203125 337.046875 132.222656 339.785156 C 121.277344 342.523438 110.332031 344.992188 99.34375 347.347656 C 93.046875 348.679688 86.707031 349.996094 80.453125 351.296875 C 76.6875 352.046875 72.996094 352.839844 69.21875 353.652344 C 61.363281 355.351562 53.503906 357.035156 45.613281 358.710938 C 36.628906 360.679688 27.644531 362.589844 18.664062 364.542969 C 16.046875 365.109375 13.445312 365.800781 10.839844 366.375 C 8.511719 366.90625 -0.183594 368.914062 6.269531 368.527344 C 15.253906 368.039062 39.234375 365.957031 90.472656 359.144531 C 109.050781 356.09375 127.6875 353.476562 146.292969 350.460938 C 169.46875 346.75 192.488281 342.230469 215.347656 336.898438 C 221.890625 335.363281 228.378906 333.722656 234.882812 331.960938 C 239.175781 330.777344 243.421875 329.546875 247.632812 328.238281 C 265.601562 322.710938 294.425781 312.941406 301.246094 309.996094 C 327.3125 298.65625 343.542969 290.128906 352.011719 269.808594 C 354.898438 262.597656 356.261719 254.519531 355.378906 246.785156 C 354.480469 239.492188 352.140625 232.699219 348.367188 226.394531 C 344.792969 220.507812 339.90625 215.484375 334.804688 210.847656 C 325.300781 202.246094 314.640625 195.304688 303.25 189.417969 C 300.019531 187.746094 296.746094 186.160156 293.429688 184.664062 C 289.3125 182.804688 285.167969 181.007812 280.992188 179.277344 C 275.117188 176.886719 269.167969 174.6875 263.148438 172.683594 C 247.511719 167.363281 231.628906 162.621094 215.914062 157.527344 C 207.007812 154.6875 198.238281 151.480469 189.601562 147.90625 C 185.960938 146.402344 182.367188 144.789062 178.824219 143.074219 C 174.652344 141.070312 170.597656 138.871094 166.585938 136.515625 C 161.660156 133.5625 153.589844 128.476562 155.839844 121.5625 C 157.410156 116.632812 162.820312 114.714844 167.230469 112.945312 C 171.320312 111.304688 175.648438 110.152344 179.902344 109.046875 C 192.898438 105.734375 206.164062 103.5 219.28125 100.726562 C 223.136719 99.917969 226.988281 99.078125 230.828125 98.199219 C 241.058594 95.816406 251.601562 94.039062 261.351562 90.191406 C 269.726562 86.921875 280.472656 81.699219 283.601562 72.574219 C 288.09375 59.292969 282.992188 44.929688 275.664062 33.722656 C 273.011719 29.707031 270.285156 25.738281 267.484375 21.820312 C 263.628906 16.472656 259.375 11.441406 255.214844 6.347656 C 253.328125 4.039062 251.035156 4.210938 249.109375 4.804688 C 246.542969 5.675781 239.53125 13.824219 183.515625 24.453125 "/></g></svg>